<svg class="diagram-root" style="background: #f5f6f6" xmlns="http://www.w3.org/2000/svg" xmlns:xlink="http://www.w3.org/1999/xlink"><style>.diagram-root { font-family: "Helvetica Neue", sans-serif; font-size: 12px; } .t { overflow: visible; } .t-bg { y: 40; fill: #fff;   } .th { fill: #005aa0;   } .tht { fill: #fff; font-size: 14px;  } .tf { fill: #323c46; overflow: visible; } .tf.pk { fill: #005aa0; font-weight: bold; } .tf.fk { font-weight: bold; } .ty { fill: #adb1b5; font-weight: normal; text-anchor: end; } .r { fill: transparent; stroke: #c3c3c3; stroke-width: 1; } .l { stroke: 1; } .i { fill: #c2c7ce; stroke: #c2c7ce; } .i.ix { fill: #afb3b6; stroke: #000; } .fa { fill: transparent; overflow: visible; } .fa .bg.hover { fill: #f7f7f7; } .c { cy: 12; r: 4; stroke: #d2d2dc; fill: #d2d2dc; } .hr { fill: transparent; stroke: #323c46; stroke-opacity: 0.035; stroke-width: 13; } .dc { stroke: #fa5a3c; fill: #fa5a3c; } .x { stroke: white; stroke-width: 1; } .hl .th { fill: #1b9bff; } .hl .tht {  } .fhl .bg { fill: #e7f4ff; } .fhls .bg {  } .r.hl { stroke: #1b9bff; } .dim { opacity: 0.25; }</style><g class="drawing-wrapper" transform="translate(-30, -6) scale(1,1)"><g class="rs"><path d="M 683 168 m -1, 0 a 1,1 0 1,0 2,0 a 1,1 0 1,0 -2,0 M 683 168 m -0.5, 0 a 0.5,0.5 0 1,0 1,0 a 0.5,0.5 0 1,0 -1,0  M683 168 L683 168 671 168 M 683 174 m -1, 0 a 1,1 0 1,0 2,0 a 1,1 0 1,0 -2,0 M 683 174 m -0.5, 0 a 0.5,0.5 0 1,0 1,0 a 0.5,0.5 0 1,0 -1,0  M683 174 L683 174 676 168 683 162 M 683 162 m -1, 0 a 1,1 0 1,0 2,0 a 1,1 0 1,0 -2,0 M 683 162 m -0.5, 0 a 0.5,0.5 0 1,0 1,0 a 0.5,0.5 0 1,0 -1,0  M671 168 Q 633.17 168, 595.35 228 T 519.7 288 M 507.7 288 m -1, 0 a 1,1 0 1,0 2,0 a 1,1 0 1,0 -2,0 M 507.7 288 m -0.5, 0 a 0.5,0.5 0 1,0 1,0 a 0.5,0.5 0 1,0 -1,0  M507.7 288 L507.7 288 519.7 288 M513.7 294 L513.7 294 513.7 282" id="h532512031" class="r"></path><path d="M 798.37 193 m -1, 0 a 1,1 0 1,0 2,0 a 1,1 0 1,0 -2,0 M 798.37 193 m -0.5, 0 a 0.5,0.5 0 1,0 1,0 a 0.5,0.5 0 1,0 -1,0  M798.37 193 L798.37 193 810.37 193 M 798.37 199 m -1, 0 a 1,1 0 1,0 2,0 a 1,1 0 1,0 -2,0 M 798.37 199 m -0.5, 0 a 0.5,0.5 0 1,0 1,0 a 0.5,0.5 0 1,0 -1,0  M798.37 199 L798.37 199 805.37 193 798.37 187 M 798.37 187 m -1, 0 a 1,1 0 1,0 2,0 a 1,1 0 1,0 -2,0 M 798.37 187 m -0.5, 0 a 0.5,0.5 0 1,0 1,0 a 0.5,0.5 0 1,0 -1,0  M810.37 193 C 860.37 193, 866.964 440, 799.38 440 M 787.38 440 m -1, 0 a 1,1 0 1,0 2,0 a 1,1 0 1,0 -2,0 M 787.38 440 m -0.5, 0 a 0.5,0.5 0 1,0 1,0 a 0.5,0.5 0 1,0 -1,0  M787.38 440 L787.38 440 799.38 440 M793.38 446 L793.38 446 793.38 434" id="h1919916393" class="r"></path><path d="M 173.02 223 m -1, 0 a 1,1 0 1,0 2,0 a 1,1 0 1,0 -2,0 M 173.02 223 m -0.5, 0 a 0.5,0.5 0 1,0 1,0 a 0.5,0.5 0 1,0 -1,0  M173.02 223 L173.02 223 185.02 223 M 173.02 229 m -1, 0 a 1,1 0 1,0 2,0 a 1,1 0 1,0 -2,0 M 173.02 229 m -0.5, 0 a 0.5,0.5 0 1,0 1,0 a 0.5,0.5 0 1,0 -1,0  M173.02 229 L173.02 229 180.02 223 173.02 217 M 173.02 217 m -1, 0 a 1,1 0 1,0 2,0 a 1,1 0 1,0 -2,0 M 173.02 217 m -0.5, 0 a 0.5,0.5 0 1,0 1,0 a 0.5,0.5 0 1,0 -1,0  M185.02 223 Q 229.52 223, 274.01 255.5 T 363 288 M 375 288 m -1, 0 a 1,1 0 1,0 2,0 a 1,1 0 1,0 -2,0 M 375 288 m -0.5, 0 a 0.5,0.5 0 1,0 1,0 a 0.5,0.5 0 1,0 -1,0  M375 288 L375 288 363 288 M369 294 L369 294 369 282" id="h3666965651" class="r"></path><path d="M 173.02 248 m -1, 0 a 1,1 0 1,0 2,0 a 1,1 0 1,0 -2,0 M 173.02 248 m -0.5, 0 a 0.5,0.5 0 1,0 1,0 a 0.5,0.5 0 1,0 -1,0  M173.02 248 L173.02 248 185.02 248 M 173.02 254 m -1, 0 a 1,1 0 1,0 2,0 a 1,1 0 1,0 -2,0 M 173.02 254 m -0.5, 0 a 0.5,0.5 0 1,0 1,0 a 0.5,0.5 0 1,0 -1,0  M173.02 254 L173.02 254 180.02 248 173.02 242 M 173.02 242 m -1, 0 a 1,1 0 1,0 2,0 a 1,1 0 1,0 -2,0 M 173.02 242 m -0.5, 0 a 0.5,0.5 0 1,0 1,0 a 0.5,0.5 0 1,0 -1,0  M185.02 248 Q 306.52 248, 428.01 170.5 T 671 93 M 683 93 m -1, 0 a 1,1 0 1,0 2,0 a 1,1 0 1,0 -2,0 M 683 93 m -0.5, 0 a 0.5,0.5 0 1,0 1,0 a 0.5,0.5 0 1,0 -1,0  M683 93 L683 93 671 93 M677 99 L677 99 677 87" id="h2475003221" class="r"></path><path d="M 167.37 469 m -1, 0 a 1,1 0 1,0 2,0 a 1,1 0 1,0 -2,0 M 167.37 469 m -0.5, 0 a 0.5,0.5 0 1,0 1,0 a 0.5,0.5 0 1,0 -1,0  M167.37 469 L167.37 469 179.37 469 M 167.37 475 m -1, 0 a 1,1 0 1,0 2,0 a 1,1 0 1,0 -2,0 M 167.37 475 m -0.5, 0 a 0.5,0.5 0 1,0 1,0 a 0.5,0.5 0 1,0 -1,0  M167.37 475 L167.37 475 174.37 469 167.37 463 M 167.37 463 m -1, 0 a 1,1 0 1,0 2,0 a 1,1 0 1,0 -2,0 M 167.37 463 m -0.5, 0 a 0.5,0.5 0 1,0 1,0 a 0.5,0.5 0 1,0 -1,0  M179.37 469 Q 291.53 469, 403.69 454.5 T 628 440 M 640 440 m -1, 0 a 1,1 0 1,0 2,0 a 1,1 0 1,0 -2,0 M 640 440 m -0.5, 0 a 0.5,0.5 0 1,0 1,0 a 0.5,0.5 0 1,0 -1,0  M640 440 L640 440 628 440 M634 446 L634 446 634 434" id="h2133401619" class="r"></path><path d="M 167.37 494 m -1, 0 a 1,1 0 1,0 2,0 a 1,1 0 1,0 -2,0 M 167.37 494 m -0.5, 0 a 0.5,0.5 0 1,0 1,0 a 0.5,0.5 0 1,0 -1,0  M167.37 494 L167.37 494 179.37 494 M 167.37 500 m -1, 0 a 1,1 0 1,0 2,0 a 1,1 0 1,0 -2,0 M 167.37 500 m -0.5, 0 a 0.5,0.5 0 1,0 1,0 a 0.5,0.5 0 1,0 -1,0  M167.37 500 L167.37 500 174.37 494 167.37 488 M 167.37 488 m -1, 0 a 1,1 0 1,0 2,0 a 1,1 0 1,0 -2,0 M 167.37 488 m -0.5, 0 a 0.5,0.5 0 1,0 1,0 a 0.5,0.5 0 1,0 -1,0  M179.37 494 Q 225.28 494, 271.19 391 T 363 288 M 375 288 m -1, 0 a 1,1 0 1,0 2,0 a 1,1 0 1,0 -2,0 M 375 288 m -0.5, 0 a 0.5,0.5 0 1,0 1,0 a 0.5,0.5 0 1,0 -1,0  M375 288 L375 288 363 288 M369 294 L369 294 369 282" id="h725379689" class="r"></path><path d="M 470.37 689 m -1, 0 a 1,1 0 1,0 2,0 a 1,1 0 1,0 -2,0 M 470.37 689 m -0.5, 0 a 0.5,0.5 0 1,0 1,0 a 0.5,0.5 0 1,0 -1,0  M470.37 689 L470.37 689 482.37 689 M 470.37 695 m -1, 0 a 1,1 0 1,0 2,0 a 1,1 0 1,0 -2,0 M 470.37 695 m -0.5, 0 a 0.5,0.5 0 1,0 1,0 a 0.5,0.5 0 1,0 -1,0  M470.37 695 L470.37 695 477.37 689 470.37 683 M 470.37 683 m -1, 0 a 1,1 0 1,0 2,0 a 1,1 0 1,0 -2,0 M 470.37 683 m -0.5, 0 a 0.5,0.5 0 1,0 1,0 a 0.5,0.5 0 1,0 -1,0  M482.37 689 Q 518.78 689, 555.18 564.5 T 628 440 M 640 440 m -1, 0 a 1,1 0 1,0 2,0 a 1,1 0 1,0 -2,0 M 640 440 m -0.5, 0 a 0.5,0.5 0 1,0 1,0 a 0.5,0.5 0 1,0 -1,0  M640 440 L640 440 628 440 M634 446 L634 446 634 434" id="h2448920340" class="r"></path><path d="M 355 714 m -1, 0 a 1,1 0 1,0 2,0 a 1,1 0 1,0 -2,0 M 355 714 m -0.5, 0 a 0.5,0.5 0 1,0 1,0 a 0.5,0.5 0 1,0 -1,0  M355 714 L355 714 343 714 M 355 720 m -1, 0 a 1,1 0 1,0 2,0 a 1,1 0 1,0 -2,0 M 355 720 m -0.5, 0 a 0.5,0.5 0 1,0 1,0 a 0.5,0.5 0 1,0 -1,0  M355 720 L355 720 348 714 355 708 M 355 708 m -1, 0 a 1,1 0 1,0 2,0 a 1,1 0 1,0 -2,0 M 355 708 m -0.5, 0 a 0.5,0.5 0 1,0 1,0 a 0.5,0.5 0 1,0 -1,0  M343 714 C 293 714, 281 288, 363 288 M 375 288 m -1, 0 a 1,1 0 1,0 2,0 a 1,1 0 1,0 -2,0 M 375 288 m -0.5, 0 a 0.5,0.5 0 1,0 1,0 a 0.5,0.5 0 1,0 -1,0  M375 288 L375 288 363 288 M369 294 L369 294 369 282" id="h3653037464" class="r"></path></g><g class="hrs"></g><g class="ts"><svg width="132.7" height="225" x="375" y="231" id="h1537667952" class="t"><rect height="40" width="132.7" class="th"></rect><text x="13" y="25" class="tht">User</text><rect height="185" width="132.7" class="t-bg"></rect><text x="13" y="61" class="tf pk">id<tspan x="119.69999999999999" class="ty">int</tspan></text><path d="M7,14A2,2 0 0,1 5,12A2,2 0 0,1 7,10A2,2 0 0,1 9,12A2,2 0 0,1 7,14M12.65,10C11.83,7.67 9.61,6 7, 6A6, 6 0 0, 0 1, 12A6, 6 0 0, 0 7, 18C9.61, 18 11.83, 16.33 12.65, 14H17V18H21V14H23V10H12.65Z" class="i pk" transform="translate(87.02617187499999, 48) scale(0.65)"></path><text x="13" y="86" class="tf">username<tspan x="119.69999999999999" class="ty">string</tspan></text><text x="13" y="111" class="tf">password<tspan x="119.69999999999999" class="ty">string</tspan></text><text x="13" y="136" class="tf">age<tspan x="119.69999999999999" class="ty">string</tspan></text><text x="13" y="161" class="tf">city<tspan x="119.69999999999999" class="ty">string</tspan></text><text x="13" y="186" class="tf">avatarURL<tspan x="119.69999999999999" class="ty">string</tspan></text><text x="13" y="211" class="tf">bio<tspan x="119.69999999999999" class="ty">text</tspan></text></svg><svg width="115.37" height="125" x="355" y="607" id="h1106975244" class="t"><rect height="40" width="115.37" class="th"></rect><text x="13" y="25" class="tht">WantSneaker</text><rect height="85" width="115.37" class="t-bg"></rect><text x="13" y="61" class="tf pk">id<tspan x="102.37" class="ty">int</tspan></text><path d="M7,14A2,2 0 0,1 5,12A2,2 0 0,1 7,10A2,2 0 0,1 9,12A2,2 0 0,1 7,14M12.65,10C11.83,7.67 9.61,6 7, 6A6, 6 0 0, 0 1, 12A6, 6 0 0, 0 7, 18C9.61, 18 11.83, 16.33 12.65, 14H17V18H21V14H23V10H12.65Z" class="i pk" transform="translate(69.696171875, 48) scale(0.65)"></path><text x="13" y="86" class="tf fk">SneakerID<tspan x="102.37" class="ty">int</tspan></text><text x="13" y="111" class="tf fk">UserID<tspan x="102.37" class="ty">int</tspan></text></svg><svg width="147.38" height="350" x="640" y="383" id="h130162792" class="t"><rect height="40" width="147.38" class="th"></rect><text x="13" y="25" class="tht">Sneaker</text><rect height="310" width="147.38" class="t-bg"></rect><text x="13" y="61" class="tf pk">id<tspan x="134.38" class="ty">int</tspan></text><path d="M7,14A2,2 0 0,1 5,12A2,2 0 0,1 7,10A2,2 0 0,1 9,12A2,2 0 0,1 7,14M12.65,10C11.83,7.67 9.61,6 7, 6A6, 6 0 0, 0 1, 12A6, 6 0 0, 0 7, 18C9.61, 18 11.83, 16.33 12.65, 14H17V18H21V14H23V10H12.65Z" class="i pk" transform="translate(101.706171875, 48) scale(0.65)"></path><text x="13" y="86" class="tf">title<tspan x="134.38" class="ty">string</tspan></text><text x="13" y="111" class="tf">category<tspan x="134.38" class="ty">string</tspan></text><text x="13" y="136" class="tf">shoe<tspan x="134.38" class="ty">string</tspan></text><text x="13" y="161" class="tf">release_date<tspan x="134.38" class="ty">string</tspan></text><text x="13" y="186" class="tf">colorway<tspan x="134.38" class="ty">string</tspan></text><text x="13" y="211" class="tf">uuid<tspan x="134.38" class="ty">string</tspan></text><text x="13" y="236" class="tf">brand<tspan x="134.38" class="ty">string</tspan></text><text x="13" y="261" class="tf">style_id<tspan x="134.38" class="ty">string</tspan></text><text x="13" y="286" class="tf">retail_price<tspan x="134.38" class="ty">string</tspan></text><text x="13" y="311" class="tf">market_value<tspan x="134.38" class="ty">string</tspan></text><text x="13" y="336" class="tf">img_url<tspan x="134.38" class="ty">string</tspan></text></svg><svg width="115.37" height="125" x="52" y="387" id="h2029998097" class="t"><rect height="40" width="115.37" class="th"></rect><text x="13" y="25" class="tht">OwnSneaker</text><rect height="85" width="115.37" class="t-bg"></rect><text x="13" y="61" class="tf pk">id<tspan x="102.37" class="ty">int</tspan></text><path d="M7,14A2,2 0 0,1 5,12A2,2 0 0,1 7,10A2,2 0 0,1 9,12A2,2 0 0,1 7,14M12.65,10C11.83,7.67 9.61,6 7, 6A6, 6 0 0, 0 1, 12A6, 6 0 0, 0 7, 18C9.61, 18 11.83, 16.33 12.65, 14H17V18H21V14H23V10H12.65Z" class="i pk" transform="translate(69.696171875, 48) scale(0.65)"></path><text x="13" y="86" class="tf fk">SneakerID<tspan x="102.37" class="ty">int</tspan></text><text x="13" y="111" class="tf fk">UserID<tspan x="102.37" class="ty">int</tspan></text></svg><svg width="98.02" height="200" x="75" y="66" id="h3709560756" class="t"><rect height="40" width="98.02" class="th"></rect><text x="13" y="25" class="tht">Comment</text><rect height="160" width="98.02" class="t-bg"></rect><text x="13" y="61" class="tf pk">id<tspan x="85.02" class="ty">int</tspan></text><path d="M7,14A2,2 0 0,1 5,12A2,2 0 0,1 7,10A2,2 0 0,1 9,12A2,2 0 0,1 7,14M12.65,10C11.83,7.67 9.61,6 7, 6A6, 6 0 0, 0 1, 12A6, 6 0 0, 0 7, 18C9.61, 18 11.83, 16.33 12.65, 14H17V18H21V14H23V10H12.65Z" class="i pk" transform="translate(52.346171874999996, 48) scale(0.65)"></path><text x="13" y="86" class="tf">text<tspan x="85.02" class="ty">string</tspan></text><text x="13" y="111" class="tf">likes<tspan x="85.02" class="ty">int</tspan></text><text x="13" y="136" class="tf">dislikes<tspan x="85.02" class="ty">int</tspan></text><text x="13" y="161" class="tf fk">UserID<tspan x="85.02" class="ty">int</tspan></text><text x="13" y="186" class="tf fk">PostID<tspan x="85.02" class="ty">int</tspan></text></svg><svg width="115.37" height="225" x="683" y="36" id="h2608394567" class="t"><rect height="40" width="115.37" class="th"></rect><text x="13" y="25" class="tht">Post</text><rect height="185" width="115.37" class="t-bg"></rect><text x="13" y="61" class="tf pk">id<tspan x="102.37" class="ty">int</tspan></text><path d="M7,14A2,2 0 0,1 5,12A2,2 0 0,1 7,10A2,2 0 0,1 9,12A2,2 0 0,1 7,14M12.65,10C11.83,7.67 9.61,6 7, 6A6, 6 0 0, 0 1, 12A6, 6 0 0, 0 7, 18C9.61, 18 11.83, 16.33 12.65, 14H17V18H21V14H23V10H12.65Z" class="i pk" transform="translate(69.696171875, 48) scale(0.65)"></path><text x="13" y="86" class="tf">title<tspan x="102.37" class="ty">text</tspan></text><text x="13" y="111" class="tf">body<tspan x="102.37" class="ty">text</tspan></text><text x="13" y="136" class="tf fk">UserID<tspan x="102.37" class="ty">int</tspan></text><text x="13" y="161" class="tf fk">SneakerID<tspan x="102.37" class="ty">int</tspan></text><text x="13" y="186" class="tf">likes<tspan x="102.37" class="ty">int</tspan></text><text x="13" y="211" class="tf">dislikes<tspan x="102.37" class="ty">int</tspan></text></svg></g></g><text class="qdbd-link" x="10" y="20">www.quickdatabasediagrams.com</text></svg>